<mxfile host="Electron" modified="2023-06-05T19:36:41.996Z" agent="Mozilla/5.0 (Macintosh; Intel Mac OS X 10_15_7) AppleWebKit/537.36 (KHTML, like Gecko) draw.io/21.2.8 Chrome/112.0.5615.165 Electron/24.2.0 Safari/537.36" etag="Q9nZ8M09xJ6WxfdW998v" version="21.2.8" type="device">
  <diagram name="Page-1" id="0bo06G6TbQqZYYwPKALO">
    <mxGraphModel dx="1172" dy="590" grid="1" gridSize="10" guides="1" tooltips="1" connect="1" arrows="1" fold="1" page="1" pageScale="1" pageWidth="827" pageHeight="1169" math="0" shadow="0">
      <root>
        <mxCell id="0" />
        <mxCell id="1" parent="0" />
        <mxCell id="_SW6PsLohoiQVqlC9mq1-1" value="Bloom Filter" style="verticalLabelPosition=middle;verticalAlign=middle;html=1;shape=mxgraph.basic.patternFillRect;fillStyle=diagGrid;step=5;fillStrokeWidth=0.2;fillStrokeColor=#dddddd;labelPosition=center;align=center;fillColor=#dae8fc;strokeColor=#6c8ebf;" parent="1" vertex="1">
          <mxGeometry x="120" y="40" width="120" height="60" as="geometry" />
        </mxCell>
        <mxCell id="h7haP0RYbSKFvBmP5ZKO-2" value="Sparse index" style="verticalLabelPosition=middle;verticalAlign=middle;html=1;shape=mxgraph.basic.patternFillRect;fillStyle=diagGrid;step=5;fillStrokeWidth=0.2;fillStrokeColor=#dddddd;labelPosition=center;align=center;fillColor=#d5e8d4;strokeColor=#82b366;" parent="1" vertex="1">
          <mxGeometry x="250" y="40" width="120" height="60" as="geometry" />
        </mxCell>
        <mxCell id="h7haP0RYbSKFvBmP5ZKO-3" value="SST L0" style="verticalLabelPosition=middle;verticalAlign=middle;html=1;shape=mxgraph.basic.patternFillRect;fillStyle=diagGrid;step=5;fillStrokeWidth=0.2;fillStrokeColor=#dddddd;labelPosition=center;align=center;shadow=1;" parent="1" vertex="1">
          <mxGeometry x="380" y="40" width="120" height="60" as="geometry" />
        </mxCell>
        <mxCell id="h7haP0RYbSKFvBmP5ZKO-4" value="SST L1" style="verticalLabelPosition=middle;verticalAlign=middle;html=1;shape=mxgraph.basic.patternFillRect;fillStyle=diagGrid;step=5;fillStrokeWidth=0.2;fillStrokeColor=#dddddd;labelPosition=center;align=center;shadow=1;" parent="1" vertex="1">
          <mxGeometry x="480" y="40" width="120" height="60" as="geometry" />
        </mxCell>
        <mxCell id="h7haP0RYbSKFvBmP5ZKO-5" value="SST L2" style="verticalLabelPosition=middle;verticalAlign=middle;html=1;shape=mxgraph.basic.patternFillRect;fillStyle=diagGrid;step=5;fillStrokeWidth=0.2;fillStrokeColor=#dddddd;labelPosition=center;align=center;shadow=1;" parent="1" vertex="1">
          <mxGeometry x="580" y="40" width="120" height="60" as="geometry" />
        </mxCell>
        <mxCell id="h7haP0RYbSKFvBmP5ZKO-6" value="&lt;b&gt;&lt;font style=&quot;font-size: 17px;&quot;&gt;...&lt;/font&gt;&lt;/b&gt;" style="text;html=1;strokeColor=none;fillColor=none;align=center;verticalAlign=middle;whiteSpace=wrap;rounded=0;" parent="1" vertex="1">
          <mxGeometry x="710" y="55" width="60" height="30" as="geometry" />
        </mxCell>
        <mxCell id="h7haP0RYbSKFvBmP5ZKO-9" value="" style="shape=table;startSize=0;container=1;collapsible=0;childLayout=tableLayout;" parent="1" vertex="1">
          <mxGeometry x="255" y="120" width="110" height="100" as="geometry" />
        </mxCell>
        <mxCell id="h7haP0RYbSKFvBmP5ZKO-10" value="" style="shape=tableRow;horizontal=0;startSize=0;swimlaneHead=0;swimlaneBody=0;strokeColor=inherit;top=0;left=0;bottom=0;right=0;collapsible=0;dropTarget=0;fillColor=none;points=[[0,0.5],[1,0.5]];portConstraint=eastwest;" parent="h7haP0RYbSKFvBmP5ZKO-9" vertex="1">
          <mxGeometry width="110" height="20" as="geometry" />
        </mxCell>
        <mxCell id="h7haP0RYbSKFvBmP5ZKO-11" value="key" style="shape=partialRectangle;html=1;whiteSpace=wrap;connectable=0;strokeColor=inherit;overflow=hidden;fillColor=none;top=0;left=0;bottom=0;right=0;pointerEvents=1;" parent="h7haP0RYbSKFvBmP5ZKO-10" vertex="1">
          <mxGeometry width="35" height="20" as="geometry">
            <mxRectangle width="35" height="20" as="alternateBounds" />
          </mxGeometry>
        </mxCell>
        <mxCell id="h7haP0RYbSKFvBmP5ZKO-12" value="offset" style="shape=partialRectangle;html=1;whiteSpace=wrap;connectable=0;strokeColor=inherit;overflow=hidden;fillColor=none;top=0;left=0;bottom=0;right=0;pointerEvents=1;" parent="h7haP0RYbSKFvBmP5ZKO-10" vertex="1">
          <mxGeometry x="35" width="75" height="20" as="geometry">
            <mxRectangle width="75" height="20" as="alternateBounds" />
          </mxGeometry>
        </mxCell>
        <mxCell id="h7haP0RYbSKFvBmP5ZKO-13" value="" style="shape=tableRow;horizontal=0;startSize=0;swimlaneHead=0;swimlaneBody=0;strokeColor=inherit;top=0;left=0;bottom=0;right=0;collapsible=0;dropTarget=0;fillColor=none;points=[[0,0.5],[1,0.5]];portConstraint=eastwest;" parent="h7haP0RYbSKFvBmP5ZKO-9" vertex="1">
          <mxGeometry y="20" width="110" height="40" as="geometry" />
        </mxCell>
        <mxCell id="h7haP0RYbSKFvBmP5ZKO-14" value="foo" style="shape=partialRectangle;html=1;whiteSpace=wrap;connectable=0;strokeColor=inherit;overflow=hidden;fillColor=none;top=0;left=0;bottom=0;right=0;pointerEvents=1;" parent="h7haP0RYbSKFvBmP5ZKO-13" vertex="1">
          <mxGeometry width="35" height="40" as="geometry">
            <mxRectangle width="35" height="40" as="alternateBounds" />
          </mxGeometry>
        </mxCell>
        <mxCell id="h7haP0RYbSKFvBmP5ZKO-15" value="0" style="shape=partialRectangle;html=1;whiteSpace=wrap;connectable=0;strokeColor=inherit;overflow=hidden;fillColor=none;top=0;left=0;bottom=0;right=0;pointerEvents=1;" parent="h7haP0RYbSKFvBmP5ZKO-13" vertex="1">
          <mxGeometry x="35" width="75" height="40" as="geometry">
            <mxRectangle width="75" height="40" as="alternateBounds" />
          </mxGeometry>
        </mxCell>
        <mxCell id="h7haP0RYbSKFvBmP5ZKO-16" value="" style="shape=tableRow;horizontal=0;startSize=0;swimlaneHead=0;swimlaneBody=0;strokeColor=inherit;top=0;left=0;bottom=0;right=0;collapsible=0;dropTarget=0;fillColor=none;points=[[0,0.5],[1,0.5]];portConstraint=eastwest;" parent="h7haP0RYbSKFvBmP5ZKO-9" vertex="1">
          <mxGeometry y="60" width="110" height="40" as="geometry" />
        </mxCell>
        <mxCell id="h7haP0RYbSKFvBmP5ZKO-17" value="ddd" style="shape=partialRectangle;html=1;whiteSpace=wrap;connectable=0;strokeColor=inherit;overflow=hidden;fillColor=none;top=0;left=0;bottom=0;right=0;pointerEvents=1;" parent="h7haP0RYbSKFvBmP5ZKO-16" vertex="1">
          <mxGeometry width="35" height="40" as="geometry">
            <mxRectangle width="35" height="40" as="alternateBounds" />
          </mxGeometry>
        </mxCell>
        <mxCell id="h7haP0RYbSKFvBmP5ZKO-18" value="1024" style="shape=partialRectangle;html=1;whiteSpace=wrap;connectable=0;strokeColor=inherit;overflow=hidden;fillColor=none;top=0;left=0;bottom=0;right=0;pointerEvents=1;" parent="h7haP0RYbSKFvBmP5ZKO-16" vertex="1">
          <mxGeometry x="35" width="75" height="40" as="geometry">
            <mxRectangle width="75" height="40" as="alternateBounds" />
          </mxGeometry>
        </mxCell>
        <mxCell id="h7haP0RYbSKFvBmP5ZKO-45" value="" style="shape=table;startSize=0;container=1;collapsible=0;childLayout=tableLayout;" parent="1" vertex="1">
          <mxGeometry x="150" y="130" width="60" height="80" as="geometry" />
        </mxCell>
        <mxCell id="h7haP0RYbSKFvBmP5ZKO-46" value="" style="shape=tableRow;horizontal=0;startSize=0;swimlaneHead=0;swimlaneBody=0;strokeColor=inherit;top=0;left=0;bottom=0;right=0;collapsible=0;dropTarget=0;fillColor=none;points=[[0,0.5],[1,0.5]];portConstraint=eastwest;" parent="h7haP0RYbSKFvBmP5ZKO-45" vertex="1">
          <mxGeometry width="60" height="20" as="geometry" />
        </mxCell>
        <mxCell id="h7haP0RYbSKFvBmP5ZKO-47" value="key" style="shape=partialRectangle;html=1;whiteSpace=wrap;connectable=0;strokeColor=inherit;overflow=hidden;fillColor=none;top=0;left=0;bottom=0;right=0;pointerEvents=1;" parent="h7haP0RYbSKFvBmP5ZKO-46" vertex="1">
          <mxGeometry width="60" height="20" as="geometry">
            <mxRectangle width="60" height="20" as="alternateBounds" />
          </mxGeometry>
        </mxCell>
        <mxCell id="h7haP0RYbSKFvBmP5ZKO-48" value="" style="shape=tableRow;horizontal=0;startSize=0;swimlaneHead=0;swimlaneBody=0;strokeColor=inherit;top=0;left=0;bottom=0;right=0;collapsible=0;dropTarget=0;fillColor=none;points=[[0,0.5],[1,0.5]];portConstraint=eastwest;" parent="h7haP0RYbSKFvBmP5ZKO-45" vertex="1">
          <mxGeometry y="20" width="60" height="20" as="geometry" />
        </mxCell>
        <mxCell id="h7haP0RYbSKFvBmP5ZKO-49" value="foo" style="shape=partialRectangle;html=1;whiteSpace=wrap;connectable=0;strokeColor=inherit;overflow=hidden;fillColor=none;top=0;left=0;bottom=0;right=0;pointerEvents=1;" parent="h7haP0RYbSKFvBmP5ZKO-48" vertex="1">
          <mxGeometry width="60" height="20" as="geometry">
            <mxRectangle width="60" height="20" as="alternateBounds" />
          </mxGeometry>
        </mxCell>
        <mxCell id="h7haP0RYbSKFvBmP5ZKO-50" value="" style="shape=tableRow;horizontal=0;startSize=0;swimlaneHead=0;swimlaneBody=0;strokeColor=inherit;top=0;left=0;bottom=0;right=0;collapsible=0;dropTarget=0;fillColor=none;points=[[0,0.5],[1,0.5]];portConstraint=eastwest;" parent="h7haP0RYbSKFvBmP5ZKO-45" vertex="1">
          <mxGeometry y="40" width="60" height="20" as="geometry" />
        </mxCell>
        <mxCell id="h7haP0RYbSKFvBmP5ZKO-51" value="bar" style="shape=partialRectangle;html=1;whiteSpace=wrap;connectable=0;strokeColor=inherit;overflow=hidden;fillColor=none;top=0;left=0;bottom=0;right=0;pointerEvents=1;" parent="h7haP0RYbSKFvBmP5ZKO-50" vertex="1">
          <mxGeometry width="60" height="20" as="geometry">
            <mxRectangle width="60" height="20" as="alternateBounds" />
          </mxGeometry>
        </mxCell>
        <mxCell id="h7haP0RYbSKFvBmP5ZKO-52" value="" style="shape=tableRow;horizontal=0;startSize=0;swimlaneHead=0;swimlaneBody=0;strokeColor=inherit;top=0;left=0;bottom=0;right=0;collapsible=0;dropTarget=0;fillColor=none;points=[[0,0.5],[1,0.5]];portConstraint=eastwest;" parent="h7haP0RYbSKFvBmP5ZKO-45" vertex="1">
          <mxGeometry y="60" width="60" height="20" as="geometry" />
        </mxCell>
        <mxCell id="h7haP0RYbSKFvBmP5ZKO-53" value="ddd" style="shape=partialRectangle;html=1;whiteSpace=wrap;connectable=0;strokeColor=inherit;overflow=hidden;fillColor=none;top=0;left=0;bottom=0;right=0;pointerEvents=1;" parent="h7haP0RYbSKFvBmP5ZKO-52" vertex="1">
          <mxGeometry width="60" height="20" as="geometry">
            <mxRectangle width="60" height="20" as="alternateBounds" />
          </mxGeometry>
        </mxCell>
        <mxCell id="h7haP0RYbSKFvBmP5ZKO-54" value="zahasowane" style="text;html=1;strokeColor=none;fillColor=none;align=center;verticalAlign=middle;whiteSpace=wrap;rounded=0;" parent="1" vertex="1">
          <mxGeometry x="80" y="155" width="60" height="30" as="geometry" />
        </mxCell>
        <mxCell id="h7haP0RYbSKFvBmP5ZKO-65" value="" style="shape=image;verticalLabelPosition=bottom;labelBackgroundColor=default;verticalAlign=top;aspect=fixed;imageAspect=0;image=https://www.researchgate.net/publication/342447088/figure/fig2/AS:906303551582209@1593091013437/A-simple-example-using-Bloom-filters-a-Bloom-filter-initialization-h-represents-a.png;" parent="1" vertex="1">
          <mxGeometry x="40" y="280" width="580" height="356.19" as="geometry" />
        </mxCell>
        <mxCell id="h7haP0RYbSKFvBmP5ZKO-67" value="&lt;b&gt;&lt;font style=&quot;font-size: 15px;&quot;&gt;Bloom Filter&amp;nbsp;&lt;/font&gt;&lt;/b&gt;" style="text;html=1;strokeColor=none;fillColor=none;align=center;verticalAlign=middle;whiteSpace=wrap;rounded=0;" parent="1" vertex="1">
          <mxGeometry x="40" y="250" width="120" height="30" as="geometry" />
        </mxCell>
        <mxCell id="h7haP0RYbSKFvBmP5ZKO-69" value="source:&amp;nbsp;https://www.researchgate.net/figure/A-simple-example-using-Bloom-filters-a-Bloom-filter-initialization-h-represents-a_fig2_342447088" style="text;html=1;strokeColor=none;fillColor=none;align=center;verticalAlign=middle;whiteSpace=wrap;rounded=0;" parent="1" vertex="1">
          <mxGeometry x="40" y="636.19" width="770" height="30" as="geometry" />
        </mxCell>
        <UserObject label="https://www.researchgate.net/figure/A-simple-example-using-Bloom-filters-a-Bloom-filter-initialization-h-represents-a_fig2_342447088" link="https://www.researchgate.net/figure/A-simple-example-using-Bloom-filters-a-Bloom-filter-initialization-h-represents-a_fig2_342447088" id="h7haP0RYbSKFvBmP5ZKO-71">
          <mxCell style="text;whiteSpace=wrap;html=1;" parent="1" vertex="1">
            <mxGeometry x="40" y="1119" width="560" height="50" as="geometry" />
          </mxCell>
        </UserObject>
        <mxCell id="h7haP0RYbSKFvBmP5ZKO-72" value="" style="shape=image;verticalLabelPosition=bottom;labelBackgroundColor=default;verticalAlign=top;aspect=fixed;imageAspect=0;image=https://yetanotherdevblog.com/content/images/2020/06/output-onlinepngtools--3-.png;" parent="1" vertex="1">
          <mxGeometry x="40" y="780.5799999999999" width="620" height="338.42" as="geometry" />
        </mxCell>
        <mxCell id="h7haP0RYbSKFvBmP5ZKO-73" value="" style="shape=image;verticalLabelPosition=bottom;labelBackgroundColor=default;verticalAlign=top;aspect=fixed;imageAspect=0;image=https://yetanotherdevblog.com/content/images/2020/06/output-onlinepngtools--11-.png;" parent="1" vertex="1">
          <mxGeometry x="840" y="85" width="628" height="473.62" as="geometry" />
        </mxCell>
      </root>
    </mxGraphModel>
  </diagram>
</mxfile>
